{
  "asset": {
    "generator": "Khronos glTF Blender I/O v3.4.50",
    "version": "2.0"
  },
  "scene": 0,
  "scenes": [
    {
      "name": "Scene",
      "nodes": [
        0,
        2
      ]
    }
  ],
  "nodes": [
    {
      "mesh": 0,
      "name": "Sphere",
      "scale": [
        2,
        2,
        2
      ],
      "translation": [
        0,
        -4.695743560791016,
        0.2557868957519531
      ]
    },
    {
      "mesh": 1,
      "name": "Sphere.003",
      "rotation": [
        -0.6887398958206177,
        -0.6263126730918884,
        -0.25891250371932983,
        0.25755420327186584
      ],
      "scale": [
        0.9838482141494751,
        0.6964582204818726,
        0.9826074838638306
      ],
      "translation": [
        -2.612051010131836,
        -0.3452184200286865,
        0.7645171880722046
      ]
    },
    {
      "children": [
        1
      ],
      "name": "NurbsPath.001",
      "rotation": [
        0,
        0.6162518858909607,
        0,
        0.7875490784645081
      ],
      "scale": [
        1.4423147439956665,
        1,
        1.0326181650161743
      ],
      "translation": [
        0,
        1.804387092590332,
        -3.2725815773010254
      ]
    }
  ],
  "animations": [
    {
      "channels": [
        {
          "sampler": 0,
          "target": {
            "node": 0,
            "path": "translation"
          }
        },
        {
          "sampler": 1,
          "target": {
            "node": 0,
            "path": "rotation"
          }
        },
        {
          "sampler": 2,
          "target": {
            "node": 0,
            "path": "scale"
          }
        }
      ],
      "name": "Action",
      "samplers": [
        {
          "input": 16,
          "interpolation": "LINEAR",
          "output": 17
        },
        {
          "input": 16,
          "interpolation": "LINEAR",
          "output": 18
        },
        {
          "input": 16,
          "interpolation": "LINEAR",
          "output": 19
        }
      ]
    },
    {
      "channels": [
        {
          "sampler": 0,
          "target": {
            "node": 2,
            "path": "translation"
          }
        },
        {
          "sampler": 1,
          "target": {
            "node": 2,
            "path": "rotation"
          }
        },
        {
          "sampler": 2,
          "target": {
            "node": 2,
            "path": "scale"
          }
        }
      ],
      "name": "Action.001",
      "samplers": [
        {
          "input": 16,
          "interpolation": "LINEAR",
          "output": 20
        },
        {
          "input": 16,
          "interpolation": "LINEAR",
          "output": 21
        },
        {
          "input": 16,
          "interpolation": "LINEAR",
          "output": 22
        }
      ]
    },
    {
      "channels": [
        {
          "sampler": 0,
          "target": {
            "node": 1,
            "path": "translation"
          }
        },
        {
          "sampler": 1,
          "target": {
            "node": 1,
            "path": "rotation"
          }
        },
        {
          "sampler": 2,
          "target": {
            "node": 1,
            "path": "scale"
          }
        }
      ],
      "name": "Action.002",
      "samplers": [
        {
          "input": 16,
          "interpolation": "LINEAR",
          "output": 23
        },
        {
          "input": 16,
          "interpolation": "LINEAR",
          "output": 24
        },
        {
          "input": 16,
          "interpolation": "LINEAR",
          "output": 25
        }
      ]
    }
  ],
  "materials": [
    {
      "doubleSided": true,
      "name": "Material.001",
      "pbrMetallicRoughness": {
        "baseColorFactor": [
          1,
          0.0020759636536240578,
          0.037293579429388046,
          1
        ],
        "metallicFactor": 0,
        "roughnessFactor": 0.5
      }
    },
    {
      "doubleSided": true,
      "name": "Material.004",
      "pbrMetallicRoughness": {
        "baseColorFactor": [
          0.6000000238418579,
          0.4000000059604645,
          0.30000001192092896,
          1
        ],
        "roughnessFactor": 0.5
      }
    },
    {
      "doubleSided": true,
      "name": "bola",
      "pbrMetallicRoughness": {
        "baseColorFactor": [
          0.6000000238418579,
          0.6000000238418579,
          0.6000000238418579,
          1
        ],
        "roughnessFactor": 0.5
      }
    },
    {
      "doubleSided": true,
      "name": "Material.003",
      "pbrMetallicRoughness": {
        "baseColorFactor": [
          0,
          0.800000011920929,
          0.800000011920929,
          1
        ],
        "metallicFactor": 0,
        "roughnessFactor": 0.5
      }
    }
  ],
  "meshes": [
    {
      "name": "Sphere",
      "primitives": [
        {
          "attributes": {
            "POSITION": 0,
            "TEXCOORD_0": 1,
            "NORMAL": 2
          },
          "indices": 3,
          "material": 0
        }
      ]
    },
    {
      "name": "Sphere.006",
      "primitives": [
        {
          "attributes": {
            "POSITION": 4,
            "TEXCOORD_0": 5,
            "NORMAL": 6
          },
          "indices": 7,
          "material": 1
        },
        {
          "attributes": {
            "POSITION": 8,
            "TEXCOORD_0": 9,
            "NORMAL": 10
          },
          "indices": 11,
          "material": 2
        },
        {
          "attributes": {
            "POSITION": 12,
            "TEXCOORD_0": 13,
            "NORMAL": 14
          },
          "indices": 15,
          "material": 3
        }
      ]
    }
  ],
  "accessors": [
    {
      "bufferView": 0,
      "componentType": 5126,
      "count": 992,
      "max": [
        2.9999990463256836,
        3,
        2.999998092651367
      ],
      "min": [
        -2.99999737739563,
        0,
        -3
      ],
      "type": "VEC3"
    },
    {
      "bufferView": 1,
      "componentType": 5126,
      "count": 992,
      "type": "VEC2"
    },
    {
      "bufferView": 2,
      "componentType": 5126,
      "count": 992,
      "type": "VEC3"
    },
    {
      "bufferView": 3,
      "componentType": 5123,
      "count": 1440,
      "type": "SCALAR"
    },
    {
      "bufferView": 4,
      "componentType": 5126,
      "count": 320,
      "max": [
        0.10550815612077713,
        1.7037242650985718,
        0.07254108786582947
      ],
      "min": [
        -0.09436088055372238,
        0.47951754927635193,
        -0.12684188783168793
      ],
      "type": "VEC3"
    },
    {
      "bufferView": 5,
      "componentType": 5126,
      "count": 320,
      "type": "VEC2"
    },
    {
      "bufferView": 6,
      "componentType": 5126,
      "count": 320,
      "type": "VEC3"
    },
    {
      "bufferView": 7,
      "componentType": 5123,
      "count": 558,
      "type": "SCALAR"
    },
    {
      "bufferView": 8,
      "componentType": 5126,
      "count": 1984,
      "max": [
        0.7934466600418091,
        0.855841875076294,
        0.7352362275123596
      ],
      "min": [
        -0.2053891122341156,
        -0.13935843110084534,
        -0.26281023025512695
      ],
      "type": "VEC3"
    },
    {
      "bufferView": 9,
      "componentType": 5126,
      "count": 1984,
      "type": "VEC2"
    },
    {
      "bufferView": 10,
      "componentType": 5126,
      "count": 1984,
      "type": "VEC3"
    },
    {
      "bufferView": 11,
      "componentType": 5123,
      "count": 2880,
      "type": "SCALAR"
    },
    {
      "bufferView": 12,
      "componentType": 5126,
      "count": 320,
      "max": [
        1.459977626800537,
        0.3187282681465149,
        1.3772835731506348
      ],
      "min": [
        0.5605750679969788,
        0.047744542360305786,
        0.5255215764045715
      ],
      "type": "VEC3"
    },
    {
      "bufferView": 13,
      "componentType": 5126,
      "count": 320,
      "type": "VEC2"
    },
    {
      "bufferView": 14,
      "componentType": 5126,
      "count": 320,
      "type": "VEC3"
    },
    {
      "bufferView": 15,
      "componentType": 5123,
      "count": 558,
      "type": "SCALAR"
    },
    {
      "bufferView": 16,
      "componentType": 5126,
      "count": 111,
      "max": [
        4.583333333333333
      ],
      "min": [
        0
      ],
      "type": "SCALAR"
    },
    {
      "bufferView": 17,
      "componentType": 5126,
      "count": 111,
      "type": "VEC3"
    },
    {
      "bufferView": 18,
      "componentType": 5126,
      "count": 111,
      "type": "VEC4"
    },
    {
      "bufferView": 19,
      "componentType": 5126,
      "count": 111,
      "type": "VEC3"
    },
    {
      "bufferView": 20,
      "componentType": 5126,
      "count": 111,
      "type": "VEC3"
    },
    {
      "bufferView": 21,
      "componentType": 5126,
      "count": 111,
      "type": "VEC4"
    },
    {
      "bufferView": 22,
      "componentType": 5126,
      "count": 111,
      "type": "VEC3"
    },
    {
      "bufferView": 23,
      "componentType": 5126,
      "count": 111,
      "type": "VEC3"
    },
    {
      "bufferView": 24,
      "componentType": 5126,
      "count": 111,
      "type": "VEC4"
    },
    {
      "bufferView": 25,
      "componentType": 5126,
      "count": 111,
      "type": "VEC3"
    }
  ],
  "bufferViews": [
    {
      "buffer": 0,
      "byteLength": 11904,
      "byteOffset": 0,
      "target": 34962
    },
    {
      "buffer": 0,
      "byteLength": 7936,
      "byteOffset": 11904,
      "target": 34962
    },
    {
      "buffer": 0,
      "byteLength": 11904,
      "byteOffset": 19840,
      "target": 34962
    },
    {
      "buffer": 0,
      "byteLength": 2880,
      "byteOffset": 31744,
      "target": 34963
    },
    {
      "buffer": 0,
      "byteLength": 3840,
      "byteOffset": 34624,
      "target": 34962
    },
    {
      "buffer": 0,
      "byteLength": 2560,
      "byteOffset": 38464,
      "target": 34962
    },
    {
      "buffer": 0,
      "byteLength": 3840,
      "byteOffset": 41024,
      "target": 34962
    },
    {
      "buffer": 0,
      "byteLength": 1116,
      "byteOffset": 44864,
      "target": 34963
    },
    {
      "buffer": 0,
      "byteLength": 23808,
      "byteOffset": 45980,
      "target": 34962
    },
    {
      "buffer": 0,
      "byteLength": 15872,
      "byteOffset": 69788,
      "target": 34962
    },
    {
      "buffer": 0,
      "byteLength": 23808,
      "byteOffset": 85660,
      "target": 34962
    },
    {
      "buffer": 0,
      "byteLength": 5760,
      "byteOffset": 109468,
      "target": 34963
    },
    {
      "buffer": 0,
      "byteLength": 3840,
      "byteOffset": 115228,
      "target": 34962
    },
    {
      "buffer": 0,
      "byteLength": 2560,
      "byteOffset": 119068,
      "target": 34962
    },
    {
      "buffer": 0,
      "byteLength": 3840,
      "byteOffset": 121628,
      "target": 34962
    },
    {
      "buffer": 0,
      "byteLength": 1116,
      "byteOffset": 125468,
      "target": 34963
    },
    {
      "buffer": 0,
      "byteLength": 444,
      "byteOffset": 126584
    },
    {
      "buffer": 0,
      "byteLength": 1332,
      "byteOffset": 127028
    },
    {
      "buffer": 0,
      "byteLength": 1776,
      "byteOffset": 128360
    },
    {
      "buffer": 0,
      "byteLength": 1332,
      "byteOffset": 130136
    },
    {
      "buffer": 0,
      "byteLength": 1332,
      "byteOffset": 131468
    },
    {
      "buffer": 0,
      "byteLength": 1776,
      "byteOffset": 132800
    },
    {
      "buffer": 0,
      "byteLength": 1332,
      "byteOffset": 134576
    },
    {
      "buffer": 0,
      "byteLength": 1332,
      "byteOffset": 135908
    },
    {
      "buffer": 0,
      "byteLength": 1776,
      "byteOffset": 137240
    },
    {
      "buffer": 0,
      "byteLength": 1332,
      "byteOffset": 139016
    }
  ],
  "buffers": [
    {
      "uri": "cupula_data.bin",
      "byteLength": 140348
    }
  ]
}