{
  "asset": {
    "generator": "Khronos glTF Blender I/O v3.4.49",
    "version": "2.0"
  },
  "scene": 0,
  "scenes": [
    {
      "name": "Scene",
      "nodes": [
        0,
        1,
        3,
        4
      ]
    }
  ],
  "nodes": [
    {
      "mesh": 0,
      "name": "Cylinder.001",
      "rotation": [
        -0.0003339784452691674,
        0.007863745093345642,
        -0.042431093752384186,
        0.9990683794021606
      ]
    },
    {
      "mesh": 1,
      "name": "Cylinder.005",
      "rotation": [
        0,
        0,
        -0.03859419375658035,
        0.9992550611495972
      ],
      "scale": [
        1.002708077430725,
        1.3288310766220093,
        1
      ],
      "translation": [
        0.006668426096439362,
        0.349270761013031,
        -0.13144397735595703
      ]
    },
    {
      "mesh": 2,
      "name": "Cylinder.007",
      "rotation": [
        0,
        0,
        -0.003457325277850032,
        0.9999940395355225
      ],
      "translation": [
        0.015959052368998528,
        0.0013430515537038445,
        4.00766134262085
      ]
    },
    {
      "children": [
        2
      ],
      "name": "BezierCircle.001",
      "rotation": [
        0,
        0,
        -0.04196680709719658,
        0.999118983745575
      ]
    },
    {
      "mesh": 3,
      "name": "Cylinder.003",
      "rotation": [
        0,
        0,
        -0.04545210301876068,
        0.9989665150642395
      ],
      "scale": [
        1.002831220626831,
        1.296890377998352,
        1
      ],
      "translation": [
        -0.03420542553067207,
        -0.11350677907466888,
        -0.14236196875572205
      ]
    }
  ],
  "animations": [
    {
      "channels": [
        {
          "sampler": 0,
          "target": {
            "node": 3,
            "path": "translation"
          }
        },
        {
          "sampler": 1,
          "target": {
            "node": 3,
            "path": "rotation"
          }
        },
        {
          "sampler": 2,
          "target": {
            "node": 3,
            "path": "scale"
          }
        }
      ],
      "name": "Action1",
      "samplers": [
        {
          "input": 31,
          "interpolation": "LINEAR",
          "output": 32
        },
        {
          "input": 31,
          "interpolation": "LINEAR",
          "output": 33
        },
        {
          "input": 31,
          "interpolation": "LINEAR",
          "output": 34
        }
      ]
    },
    {
      "channels": [
        {
          "sampler": 0,
          "target": {
            "node": 2,
            "path": "translation"
          }
        },
        {
          "sampler": 1,
          "target": {
            "node": 2,
            "path": "rotation"
          }
        },
        {
          "sampler": 2,
          "target": {
            "node": 2,
            "path": "scale"
          }
        }
      ],
      "name": "Action",
      "samplers": [
        {
          "input": 31,
          "interpolation": "LINEAR",
          "output": 35
        },
        {
          "input": 31,
          "interpolation": "LINEAR",
          "output": 36
        },
        {
          "input": 31,
          "interpolation": "LINEAR",
          "output": 37
        }
      ]
    }
  ],
  "materials": [
    {
      "doubleSided": true,
      "name": "circulo",
      "pbrMetallicRoughness": {
        "baseColorFactor": [
          0.8000000715255737,
          0.08202586323022842,
          0.2821339964866638,
          1
        ],
        "metallicFactor": 0,
        "roughnessFactor": 0.5
      }
    },
    {
      "doubleSided": true,
      "name": "Material.001",
      "pbrMetallicRoughness": {
        "baseColorFactor": [
          0.6729024052619934,
          0.1127847358584404,
          0.8000000715255737,
          1
        ],
        "metallicFactor": 0,
        "roughnessFactor": 0.5
      }
    },
    {
      "doubleSided": true,
      "name": "Material.009",
      "pbrMetallicRoughness": {
        "baseColorFactor": [
          0.6729024052619934,
          0.1127847358584404,
          0.8000000715255737,
          1
        ],
        "metallicFactor": 0,
        "roughnessFactor": 0.5
      }
    },
    {
      "doubleSided": true,
      "name": "resorteRueda",
      "pbrMetallicRoughness": {
        "baseColorFactor": [
          0.10603854805231094,
          0.22559817135334015,
          0.8000000715255737,
          1
        ],
        "roughnessFactor": 0.5
      }
    },
    {
      "doubleSided": true,
      "name": "Material.002",
      "pbrMetallicRoughness": {
        "baseColorFactor": [
          0.8000000715255737,
          0.7025449872016907,
          0.09637008607387543,
          1
        ],
        "metallicFactor": 0,
        "roughnessFactor": 0.5
      }
    },
    {
      "doubleSided": true,
      "name": "Material.017",
      "pbrMetallicRoughness": {
        "baseColorFactor": [
          0.2696007192134857,
          0.8000000715255737,
          0.1114908829331398,
          1
        ],
        "metallicFactor": 0,
        "roughnessFactor": 0.5
      }
    },
    {
      "doubleSided": true,
      "name": "Material.010",
      "pbrMetallicRoughness": {
        "baseColorFactor": [
          0.8000000715255737,
          0.6082754731178284,
          0.05609799548983574,
          1
        ],
        "metallicFactor": 50,
        "roughnessFactor": 0.5
      }
    },
    {
      "doubleSided": true,
      "name": "Material.012",
      "pbrMetallicRoughness": {
        "baseColorFactor": [
          0.8000000715255737,
          0.7025449872016907,
          0.09637008607387543,
          1
        ],
        "metallicFactor": 0,
        "roughnessFactor": 0.5
      }
    }
  ],
  "meshes": [
    {
      "name": "Cylinder.001",
      "primitives": [
        {
          "attributes": {
            "POSITION": 0,
            "TEXCOORD_0": 1,
            "NORMAL": 2
          },
          "indices": 3,
          "material": 0
        }
      ]
    },
    {
      "name": "Cylinder.006",
      "primitives": [
        {
          "attributes": {
            "POSITION": 4,
            "TEXCOORD_0": 5,
            "NORMAL": 6
          },
          "indices": 7,
          "material": 1
        }
      ]
    },
    {
      "name": "Cylinder.004",
      "primitives": [
        {
          "attributes": {
            "POSITION": 8,
            "TEXCOORD_0": 9,
            "NORMAL": 10
          },
          "indices": 11,
          "material": 2
        },
        {
          "attributes": {
            "POSITION": 12,
            "TEXCOORD_0": 13,
            "NORMAL": 14
          },
          "indices": 15,
          "material": 3
        },
        {
          "attributes": {
            "POSITION": 16,
            "TEXCOORD_0": 17,
            "NORMAL": 18
          },
          "indices": 19,
          "material": 4
        },
        {
          "attributes": {
            "POSITION": 20,
            "TEXCOORD_0": 21,
            "NORMAL": 22
          },
          "indices": 23,
          "material": 5
        },
        {
          "attributes": {
            "POSITION": 24,
            "TEXCOORD_0": 25,
            "NORMAL": 26
          },
          "indices": 27,
          "material": 6
        }
      ]
    },
    {
      "name": "Cylinder.018",
      "primitives": [
        {
          "attributes": {
            "POSITION": 28,
            "TEXCOORD_0": 29,
            "NORMAL": 30
          },
          "indices": 19,
          "material": 7
        }
      ]
    }
  ],
  "accessors": [
    {
      "bufferView": 0,
      "componentType": 5126,
      "count": 192,
      "max": [
        3,
        0.5,
        3
      ],
      "min": [
        -3,
        -0.5,
        -3
      ],
      "type": "VEC3"
    },
    {
      "bufferView": 1,
      "componentType": 5126,
      "count": 192,
      "type": "VEC2"
    },
    {
      "bufferView": 2,
      "componentType": 5126,
      "count": 192,
      "type": "VEC3"
    },
    {
      "bufferView": 3,
      "componentType": 5123,
      "count": 372,
      "type": "SCALAR"
    },
    {
      "bufferView": 4,
      "componentType": 5126,
      "count": 320,
      "max": [
        0.00803284253925085,
        -0.5402552485466003,
        0.27894842624664307
      ],
      "min": [
        -0.3230434060096741,
        -2.5344252586364746,
        -0.05845291540026665
      ],
      "type": "VEC3"
    },
    {
      "bufferView": 5,
      "componentType": 5126,
      "count": 320,
      "type": "VEC2"
    },
    {
      "bufferView": 6,
      "componentType": 5126,
      "count": 320,
      "type": "VEC3"
    },
    {
      "bufferView": 7,
      "componentType": 5123,
      "count": 558,
      "type": "SCALAR"
    },
    {
      "bufferView": 8,
      "componentType": 5126,
      "count": 320,
      "max": [
        -0.05987032502889633,
        -0.5209003686904907,
        0.19944635033607483
      ],
      "min": [
        -0.39094752073287964,
        -2.5150067806243896,
        -0.13799604773521423
      ],
      "type": "VEC3"
    },
    {
      "bufferView": 9,
      "componentType": 5126,
      "count": 320,
      "type": "VEC2"
    },
    {
      "bufferView": 10,
      "componentType": 5126,
      "count": 320,
      "type": "VEC3"
    },
    {
      "bufferView": 11,
      "componentType": 5123,
      "count": 558,
      "type": "SCALAR"
    },
    {
      "bufferView": 12,
      "componentType": 5126,
      "count": 7920,
      "max": [
        1,
        1.6110633611679077,
        1
      ],
      "min": [
        -1,
        -0.5,
        -4.110269546508789
      ],
      "type": "VEC3"
    },
    {
      "bufferView": 13,
      "componentType": 5126,
      "count": 7920,
      "type": "VEC2"
    },
    {
      "bufferView": 14,
      "componentType": 5126,
      "count": 7920,
      "type": "VEC3"
    },
    {
      "bufferView": 15,
      "componentType": 5123,
      "count": 46452,
      "type": "SCALAR"
    },
    {
      "bufferView": 16,
      "componentType": 5126,
      "count": 320,
      "max": [
        0.15089966356754303,
        2.479016065597534,
        0.2731729745864868
      ],
      "min": [
        -0.1742522418498993,
        0.48493921756744385,
        -0.06927812099456787
      ],
      "type": "VEC3"
    },
    {
      "bufferView": 17,
      "componentType": 5126,
      "count": 320,
      "type": "VEC2"
    },
    {
      "bufferView": 18,
      "componentType": 5126,
      "count": 320,
      "type": "VEC3"
    },
    {
      "bufferView": 19,
      "componentType": 5123,
      "count": 558,
      "type": "SCALAR"
    },
    {
      "bufferView": 20,
      "componentType": 5126,
      "count": 320,
      "max": [
        0.0989668071269989,
        0.7416262030601501,
        0.08546233177185059
      ],
      "min": [
        -0.23315846920013428,
        0.4041804373264313,
        -1.98722505569458
      ],
      "type": "VEC3"
    },
    {
      "bufferView": 21,
      "componentType": 5126,
      "count": 320,
      "type": "VEC2"
    },
    {
      "bufferView": 22,
      "componentType": 5126,
      "count": 320,
      "type": "VEC3"
    },
    {
      "bufferView": 23,
      "componentType": 5123,
      "count": 558,
      "type": "SCALAR"
    },
    {
      "bufferView": 24,
      "componentType": 5126,
      "count": 320,
      "max": [
        0.004722528159618378,
        -0.3888551890850067,
        1.2611654996871948
      ],
      "min": [
        -0.3215385973453522,
        -0.7311192750930786,
        0.02472209930419922
      ],
      "type": "VEC3"
    },
    {
      "bufferView": 25,
      "componentType": 5126,
      "count": 320,
      "type": "VEC2"
    },
    {
      "bufferView": 26,
      "componentType": 5126,
      "count": 320,
      "type": "VEC3"
    },
    {
      "bufferView": 27,
      "componentType": 5123,
      "count": 558,
      "type": "SCALAR"
    },
    {
      "bufferView": 28,
      "componentType": 5126,
      "count": 320,
      "max": [
        0.15089963376522064,
        2.479015827178955,
        0.273173451423645
      ],
      "min": [
        -0.1742522418498993,
        0.4849391579627991,
        -0.06927764415740967
      ],
      "type": "VEC3"
    },
    {
      "bufferView": 29,
      "componentType": 5126,
      "count": 320,
      "type": "VEC2"
    },
    {
      "bufferView": 30,
      "componentType": 5126,
      "count": 320,
      "type": "VEC3"
    },
    {
      "bufferView": 31,
      "componentType": 5126,
      "count": 101,
      "max": [
        4.166666666666667
      ],
      "min": [
        0
      ],
      "type": "SCALAR"
    },
    {
      "bufferView": 32,
      "componentType": 5126,
      "count": 101,
      "type": "VEC3"
    },
    {
      "bufferView": 33,
      "componentType": 5126,
      "count": 101,
      "type": "VEC4"
    },
    {
      "bufferView": 34,
      "componentType": 5126,
      "count": 101,
      "type": "VEC3"
    },
    {
      "bufferView": 35,
      "componentType": 5126,
      "count": 101,
      "type": "VEC3"
    },
    {
      "bufferView": 36,
      "componentType": 5126,
      "count": 101,
      "type": "VEC4"
    },
    {
      "bufferView": 37,
      "componentType": 5126,
      "count": 101,
      "type": "VEC3"
    }
  ],
  "bufferViews": [
    {
      "buffer": 0,
      "byteLength": 2304,
      "byteOffset": 0,
      "target": 34962
    },
    {
      "buffer": 0,
      "byteLength": 1536,
      "byteOffset": 2304,
      "target": 34962
    },
    {
      "buffer": 0,
      "byteLength": 2304,
      "byteOffset": 3840,
      "target": 34962
    },
    {
      "buffer": 0,
      "byteLength": 744,
      "byteOffset": 6144,
      "target": 34963
    },
    {
      "buffer": 0,
      "byteLength": 3840,
      "byteOffset": 6888,
      "target": 34962
    },
    {
      "buffer": 0,
      "byteLength": 2560,
      "byteOffset": 10728,
      "target": 34962
    },
    {
      "buffer": 0,
      "byteLength": 3840,
      "byteOffset": 13288,
      "target": 34962
    },
    {
      "buffer": 0,
      "byteLength": 1116,
      "byteOffset": 17128,
      "target": 34963
    },
    {
      "buffer": 0,
      "byteLength": 3840,
      "byteOffset": 18244,
      "target": 34962
    },
    {
      "buffer": 0,
      "byteLength": 2560,
      "byteOffset": 22084,
      "target": 34962
    },
    {
      "buffer": 0,
      "byteLength": 3840,
      "byteOffset": 24644,
      "target": 34962
    },
    {
      "buffer": 0,
      "byteLength": 1116,
      "byteOffset": 28484,
      "target": 34963
    },
    {
      "buffer": 0,
      "byteLength": 95040,
      "byteOffset": 29600,
      "target": 34962
    },
    {
      "buffer": 0,
      "byteLength": 63360,
      "byteOffset": 124640,
      "target": 34962
    },
    {
      "buffer": 0,
      "byteLength": 95040,
      "byteOffset": 188000,
      "target": 34962
    },
    {
      "buffer": 0,
      "byteLength": 92904,
      "byteOffset": 283040,
      "target": 34963
    },
    {
      "buffer": 0,
      "byteLength": 3840,
      "byteOffset": 375944,
      "target": 34962
    },
    {
      "buffer": 0,
      "byteLength": 2560,
      "byteOffset": 379784,
      "target": 34962
    },
    {
      "buffer": 0,
      "byteLength": 3840,
      "byteOffset": 382344,
      "target": 34962
    },
    {
      "buffer": 0,
      "byteLength": 1116,
      "byteOffset": 386184,
      "target": 34963
    },
    {
      "buffer": 0,
      "byteLength": 3840,
      "byteOffset": 387300,
      "target": 34962
    },
    {
      "buffer": 0,
      "byteLength": 2560,
      "byteOffset": 391140,
      "target": 34962
    },
    {
      "buffer": 0,
      "byteLength": 3840,
      "byteOffset": 393700,
      "target": 34962
    },
    {
      "buffer": 0,
      "byteLength": 1116,
      "byteOffset": 397540,
      "target": 34963
    },
    {
      "buffer": 0,
      "byteLength": 3840,
      "byteOffset": 398656,
      "target": 34962
    },
    {
      "buffer": 0,
      "byteLength": 2560,
      "byteOffset": 402496,
      "target": 34962
    },
    {
      "buffer": 0,
      "byteLength": 3840,
      "byteOffset": 405056,
      "target": 34962
    },
    {
      "buffer": 0,
      "byteLength": 1116,
      "byteOffset": 408896,
      "target": 34963
    },
    {
      "buffer": 0,
      "byteLength": 3840,
      "byteOffset": 410012,
      "target": 34962
    },
    {
      "buffer": 0,
      "byteLength": 2560,
      "byteOffset": 413852,
      "target": 34962
    },
    {
      "buffer": 0,
      "byteLength": 3840,
      "byteOffset": 416412,
      "target": 34962
    },
    {
      "buffer": 0,
      "byteLength": 404,
      "byteOffset": 420252
    },
    {
      "buffer": 0,
      "byteLength": 1212,
      "byteOffset": 420656
    },
    {
      "buffer": 0,
      "byteLength": 1616,
      "byteOffset": 421868
    },
    {
      "buffer": 0,
      "byteLength": 1212,
      "byteOffset": 423484
    },
    {
      "buffer": 0,
      "byteLength": 1212,
      "byteOffset": 424696
    },
    {
      "buffer": 0,
      "byteLength": 1616,
      "byteOffset": 425908
    },
    {
      "buffer": 0,
      "byteLength": 1212,
      "byteOffset": 427524
    }
  ],
  "buffers": [
    {
      "uri": "cilindroVilaseca_data.bin",
      "byteLength": 428736
    }
  ]
}